<svg width="153" height="129" viewBox="0 0 153 129" fill="none" xmlns="http://www.w3.org/2000/svg">
<path d="M57.4688 36.5774C64.6211 31.1799 72.139 26.1569 78.8917 22.5001C91.6914 15.5687 132.77 7.94344 140.111 42.4341C146.223 71.1545 106.714 89.7202 77.2306 97.7931M57.4688 36.5774C36.5502 52.3638 18.759 71.3545 32.3852 68.7422C47.4168 63.1374 68.4031 57.982 32.0953 82.1989C-4.21255 106.416 30.8313 96.7604 52.8917 88.9056C59.5235 85.8904 70.5988 82.398 61.8461 92.5501C53.0934 102.702 51.7624 102.304 60.9534 101.473C65.7377 100.639 71.3071 99.415 77.2306 97.7931M57.4688 36.5774C73.8949 25.7105 109.686 10.7419 126.778 39.6024C143.871 68.463 101.313 90.5714 77.2306 97.7931" stroke="#0066FF"/>
<path d="M115.217 43.2938C121.004 53.3161 118.168 69.0832 103.478 77.5642C96.1396 81.8011 87.2026 82.855 79.3597 81.5713C71.4971 80.2843 64.8562 76.6722 61.995 71.7163C59.1334 66.7599 59.4294 60.5435 62.3229 54.4549C65.2153 48.3687 70.6859 42.4602 78.0647 38.2C92.823 29.6793 109.466 33.3322 115.217 43.2938Z" stroke="#0066FF"/>
<path d="M86.4976 52.9595C87.5293 54.7464 86.9278 57.0156 85.1679 58.0317C83.408 59.0478 81.142 58.434 80.1104 56.6472C79.0787 54.8603 79.6802 52.5911 81.4401 51.575C83.2 50.5589 85.466 51.1726 86.4976 52.9595Z" stroke="#0066FF"/>
<path d="M111.161 41.7034C111.891 42.9678 112.161 44.3156 112.028 45.4611C111.896 46.6065 111.369 47.5152 110.536 47.996C109.703 48.4768 108.653 48.4786 107.595 48.0208C106.536 47.563 105.504 46.6555 104.774 45.3911C104.044 44.1267 103.774 42.7788 103.907 41.6334C104.04 40.4879 104.566 39.5793 105.399 39.0984C106.232 38.6176 107.282 38.6158 108.341 39.0736C109.399 39.5314 110.431 40.439 111.161 41.7034Z" stroke="#0066FF"/>
<path d="M87.3571 39.9529C86.1074 40.6745 84.7706 40.9342 83.6308 40.7915C82.4913 40.649 81.5791 40.1124 81.0907 39.2664C80.6023 38.4204 80.5937 37.3621 81.0399 36.3041C81.4863 35.2456 82.3796 34.2178 83.6293 33.4963C84.879 32.7748 86.2158 32.5151 87.3556 32.6577C88.4951 32.8003 89.4073 33.3369 89.8957 34.1828C90.3841 35.0288 90.3927 36.0871 89.9465 37.1452C89.5001 38.2036 88.6068 39.2314 87.3571 39.9529Z" stroke="#0066FF"/>
<path d="M99.6387 57.2706C98.8608 57.7197 98.0366 57.8799 97.3444 57.7969C96.6523 57.714 96.1247 57.3963 95.8482 56.9174C95.5717 56.4386 95.5604 55.8228 95.8346 55.182C96.1089 54.541 96.6597 53.9073 97.4376 53.4582C98.2155 53.0091 99.0397 52.8489 99.7319 52.9318C100.424 53.0148 100.952 53.3325 101.228 53.8114C101.505 54.2902 101.516 54.906 101.242 55.5468C100.967 56.1878 100.417 56.8215 99.6387 57.2706Z" stroke="#0066FF"/>
<path d="M74.0735 69.115C73.2013 68.8768 72.5 68.4028 72.0644 67.8522C71.6288 67.3017 71.4776 66.7052 71.6167 66.1758C71.7559 65.6465 72.1794 65.2069 72.8267 64.952C73.474 64.6972 74.3139 64.644 75.1861 64.8822C76.0583 65.1203 76.7596 65.5943 77.1952 66.1449C77.6308 66.6955 77.782 67.2919 77.6428 67.8213C77.5037 68.3507 77.0801 68.7902 76.4328 69.0451C75.7856 69.3 74.9457 69.3531 74.0735 69.115Z" stroke="#0066FF"/>
<path d="M85.5115 75.9108C84.851 75.7304 84.3244 75.3725 84.0004 74.963C83.6764 74.5534 83.5735 74.1228 83.6713 73.7509C83.769 73.3789 84.0693 73.0585 84.5509 72.8689C85.0323 72.6793 85.6639 72.6376 86.3245 72.818C86.985 72.9983 87.5116 73.3562 87.8356 73.7658C88.1596 74.1753 88.2625 74.6059 88.1647 74.9779C88.067 75.3498 87.7666 75.6703 87.2851 75.8599C86.8037 76.0495 86.1721 76.0911 85.5115 75.9108Z" stroke="#0066FF"/>
<path d="M99.7516 68.8678C99.2809 69.1396 98.7873 69.2312 98.3811 69.1804C97.9752 69.1296 97.687 68.9447 97.5391 68.6885C97.3912 68.4323 97.3751 68.0902 97.5341 67.7133C97.6932 67.3361 98.0193 66.9545 98.4901 66.6827C98.9609 66.4109 99.4544 66.3193 99.8607 66.3701C100.267 66.4209 100.555 66.6058 100.703 66.862C100.851 67.1182 100.867 67.4603 100.708 67.8371C100.549 68.2144 100.222 68.596 99.7516 68.8678Z" stroke="#0066FF"/>
<path d="M72.605 46.7927C72.2212 47.1784 71.7689 47.3955 71.3642 47.452C70.9599 47.5084 70.6347 47.4042 70.4264 47.195C70.2181 46.9857 70.1145 46.659 70.1706 46.2527C70.2268 45.846 70.4429 45.3916 70.8267 45.0059C71.2106 44.6202 71.6628 44.4031 72.0675 44.3467C72.4719 44.2903 72.7971 44.3944 73.0054 44.6036C73.2136 44.8129 73.3173 45.1397 73.2612 45.5459C73.205 45.9526 72.9889 46.407 72.605 46.7927Z" stroke="#0066FF"/>
<path d="M115.894 53.6221C115.897 54.4496 115.649 55.1783 115.269 55.6882C114.89 56.198 114.402 56.4644 113.906 56.4624C113.409 56.4603 112.92 56.1898 112.536 55.6769C112.152 55.1638 111.898 54.433 111.895 53.6055C111.891 52.778 112.139 52.0493 112.519 51.5394C112.899 51.0296 113.386 50.7632 113.882 50.7652C114.379 50.7673 114.869 51.0378 115.252 51.5507C115.636 52.0637 115.89 52.7945 115.894 53.6221Z" stroke="#0066FF"/>
<path d="M117.811 65.8441C117.307 66.725 116.592 67.3495 115.864 67.6597C115.135 67.9697 114.425 67.9571 113.866 67.6312C113.307 67.3054 112.941 66.6905 112.842 65.8988C112.744 65.1069 112.923 64.1696 113.426 63.2887C113.93 62.4079 114.645 61.7833 115.373 61.4731C116.101 61.1631 116.812 61.1758 117.371 61.5016C117.93 61.8275 118.296 62.4423 118.394 63.234C118.493 64.0259 118.314 64.9632 117.811 65.8441Z" stroke="#0066FF"/>
<path d="M95.2483 84.3158C94.2336 84.3116 93.3327 83.9973 92.6959 83.5163C92.0594 83.0355 91.71 82.411 91.7073 81.7639C91.7047 81.1168 92.049 80.4951 92.6816 80.0195C93.3144 79.5438 94.2127 79.237 95.2274 79.2411C96.2421 79.2453 97.143 79.5596 97.7797 80.0406C98.4163 80.5214 98.7657 81.146 98.7684 81.7931C98.771 82.4401 98.4267 83.0618 97.7941 83.5374C97.1613 84.0131 96.263 84.32 95.2483 84.3158Z" stroke="#0066FF"/>
<path d="M70.0022 81.5345C68.9875 81.5303 68.0866 81.2161 67.4499 80.7351C66.8133 80.2543 66.4639 79.6297 66.4612 78.9826C66.4586 78.3355 66.8029 77.7138 67.4355 77.2383C68.0683 76.7625 68.9666 76.4557 69.9813 76.4599C70.996 76.4641 71.8969 76.7784 72.5336 77.2594C73.1702 77.7402 73.5196 78.3647 73.5223 79.0118C73.5249 79.6589 73.1806 80.2806 72.548 80.7561C71.9152 81.2319 71.0169 81.5387 70.0022 81.5345Z" stroke="#0066FF"/>
<path d="M62.6061 66.8797C62.4402 66.2663 62.4809 65.6805 62.6573 65.235C62.8338 64.7895 63.1289 64.5149 63.4674 64.425C63.8059 64.3352 64.2002 64.4269 64.5778 64.7253C64.9555 65.0238 65.2864 65.5109 65.4523 66.1243C65.6182 66.7377 65.5775 67.3235 65.4011 67.769C65.2247 68.2145 64.9295 68.4891 64.591 68.5789C64.2525 68.6688 63.8583 68.5771 63.4806 68.2787C63.103 67.9802 62.772 67.4931 62.6061 66.8797Z" stroke="#0066FF"/>
</svg>
