<svg width="324" height="216" viewBox="0 0 324 216" fill="none" xmlns="http://www.w3.org/2000/svg">
    <path d="M321.154 65.6541C328.372 92.6313 317.209 121.885 293.158 147.394C269.114 172.897 232.242 194.591 188.234 206.399C144.226 218.207 101.462 217.881 67.905 207.834C34.3391 197.784 10.0647 178.039 2.84617 151.062C-4.37239 124.085 6.79091 94.8313 30.8417 69.3215C54.8862 43.8185 91.7584 22.1246 135.766 10.3166C179.774 -1.49145 222.538 -1.16546 256.095 8.88199C289.661 18.9321 313.935 38.677 321.154 65.6541Z" stroke="white"/>
    <path d="M299.158 71.5573C305.374 94.7856 295.764 119.984 275.036 141.969C254.315 163.948 222.536 182.647 184.602 192.825C146.669 203.003 109.81 202.721 80.891 194.062C51.963 185.401 31.0589 168.389 24.8434 145.161C18.628 121.933 28.2374 96.7337 48.965 74.7487C69.6862 52.7706 101.466 34.0717 139.399 23.8934C177.333 13.7152 214.191 13.9972 243.111 22.656C272.039 31.3174 292.943 48.329 299.158 71.5573Z" stroke="white"/>
    <path d="M314.94 67.3223C321.895 93.314 311.131 121.464 288.022 145.974C264.916 170.482 229.495 191.318 187.233 202.657C144.971 213.997 103.892 213.687 71.6448 204.032C39.3934 194.376 16.0159 175.387 9.06104 149.395C2.10616 123.404 12.8703 95.2541 35.9793 70.7433C59.0851 46.2359 94.5058 25.3999 136.768 14.0602C179.03 2.72045 220.109 3.03021 252.356 12.6854C284.608 22.342 307.985 41.3306 314.94 67.3223Z" stroke="white" stroke-width="0.5"/>
</svg>
