<svg width="684" height="607" viewBox="0 0 684 607" fill="none" xmlns="http://www.w3.org/2000/svg">
<path d="M75.9921 238.492C62.8359 287.565 80.8915 340.083 120.847 385.34C160.799 430.594 222.611 468.537 296.821 488.411C371.03 508.284 443.543 506.315 500.781 487.09C558.024 467.863 599.933 431.404 613.089 382.331C626.246 333.257 608.19 280.739 568.235 235.482C528.282 190.228 466.47 152.285 392.261 132.412C318.051 112.538 245.539 114.507 188.3 133.733C131.058 152.959 89.1483 189.418 75.9921 238.492Z" stroke="#0066FF"/>
<path d="M65.1376 204.326C51.9814 253.4 70.037 305.918 109.992 351.175C149.945 396.429 211.757 434.372 285.966 454.245C360.176 474.119 432.688 472.15 489.927 452.924C547.17 433.698 589.079 397.239 602.235 348.166C615.391 299.092 597.336 246.574 557.38 201.317C517.428 156.063 455.616 118.12 381.406 98.2465C307.197 78.3726 234.685 80.3423 177.446 99.5676C120.203 118.794 78.2938 155.253 65.1376 204.326Z" stroke="#0066FF"/>
<path d="M91.5096 157.166C66.683 200.178 72.426 255.506 101.937 310.253C131.443 364.991 184.675 419.069 254.656 459.483C324.636 499.897 398.073 518.971 460.218 517.162C522.372 515.352 573.146 492.663 597.973 449.651C622.799 406.638 617.056 351.31 587.546 296.564C558.04 241.826 504.807 187.748 434.827 147.334C364.846 106.92 291.41 87.8456 229.265 89.6548C167.11 91.4643 116.336 114.153 91.5096 157.166Z" stroke="#0066FF"/>
<path d="M126.46 177.353C105.071 214.41 110.013 262.088 135.451 309.279C160.885 356.461 206.772 403.079 267.101 437.919C327.429 472.759 390.735 489.201 444.302 487.642C497.878 486.082 541.629 466.525 563.018 429.467C584.407 392.41 579.465 344.733 554.027 297.542C528.593 250.359 482.706 203.741 422.377 168.901C362.049 134.061 298.743 117.619 245.176 119.179C191.599 120.739 147.849 140.296 126.46 177.353Z" stroke="#0066FF"/>
<path d="M101.549 162.967C77.6715 204.335 83.2123 257.515 111.551 310.087C139.887 362.655 191 414.575 258.181 453.372C325.363 492.17 395.871 510.487 455.552 508.75C515.238 507.012 564.051 485.222 587.928 443.854C611.806 402.486 606.265 349.306 577.926 296.734C549.59 244.166 498.477 192.246 431.296 153.449C364.115 114.651 293.606 96.3341 233.925 98.0715C174.24 99.8091 125.426 121.6 101.549 162.967Z" stroke="#0066FF" stroke-width="0.5"/>
</svg>
