<svg width="106" height="100" viewBox="0 0 106 100" fill="none" xmlns="http://www.w3.org/2000/svg">
<path d="M100.886 50C100.886 77.3375 78.6958 99.5 51.3214 99.5C23.9471 99.5 1.75684 77.3375 1.75684 50C1.75684 22.6625 23.9471 0.5 51.3214 0.5C78.6958 0.5 100.886 22.6625 100.886 50Z" stroke="#0066FF"/>
<path d="M55.209 90.7756C52.0981 89.6106 44.678 92.5561 41.5996 94.1742C38.8776 95.7261 44.5853 97.5173 47.4324 98.0574C51.6233 98.8525 56.951 95.3423 57.6394 94.6574C58.1253 94.1739 59.0975 92.2319 55.209 90.7756Z" stroke="#0066FF"/>
<path d="M28.9626 17.4757C25.8518 16.3106 21.3477 18.7707 18.2693 20.3889C15.5473 21.9407 13.9642 27.6158 16.8113 28.1559C21.0022 28.9509 28.7618 24.4732 29.4489 23.7869C30.4211 22.8161 32.8511 18.932 28.9626 17.4757Z" stroke="#0066FF"/>
<path d="M36.7393 78.6396C37.4212 77.4474 37.7111 73.7838 33.8223 72.3283C29.7367 70.799 19.2411 75.7276 14.8665 76.2131C12.2969 76.4984 8.06152 76.213 8.06152 76.213C8.06152 76.213 11.0474 83.439 13.8944 83.9791C18.0853 84.7742 34.7956 82.0379 36.7393 78.6396Z" fill="white" stroke="#0066FF"/>
<path d="M52.2942 83.4953C49.6071 82.0383 47.3679 80.5012 49.862 77.1849C52.4824 73.7007 82.9163 65.1974 92.6376 59.2233C98.9565 55.3401 100.901 52.4269 100.901 52.4269C100.901 52.4269 103.817 59.2228 99.926 64.0794C97.2608 67.4059 55.5472 85.259 52.2942 83.4953Z" fill="white" stroke="#0066FF"/>
<path d="M32.8511 40.2912C34.3093 38.3495 34.3096 34.9503 30.4208 33.4948C26.3351 31.9655 13.4086 38.6394 9.03406 39.1249C6.46449 39.4102 2.71467 38.3495 2.22907 39.1248C1.74348 39.9001 -1.17243 65.534 4.17357 66.9903C9.51957 68.4466 21.1858 65.534 21.1858 65.534C21.1858 65.534 29.0546 64.1123 29.9349 61.6505C32.3652 54.8543 24.7061 54.7711 22.644 53.398C19.7278 51.4563 19.5329 48.1552 20.6995 46.6019C22.1579 44.6602 29.9349 43.2039 32.8511 40.2912Z" fill="white" stroke="#0066FF"/>
<path d="M46.947 17.9613C55.1129 15.6312 67.1997 8.25255 72.2223 4.85449C94.0952 10.6797 100.9 38.3194 100.9 42.2331C100.9 45.6312 76.1429 56.089 62.015 62.136C51.8077 66.505 49.6857 59.7541 51.8077 57.2817C54.724 53.8836 63.9593 50.6474 70.2781 48.5438C72.0603 48.0584 75.1387 45.9225 73.1945 41.2623C71.2502 36.6021 65.4174 38.8351 60.5568 41.7477C55.6962 44.1749 51.3216 38.1878 53.7519 34.9516C61.5289 30.0972 56.6683 24.272 50.3495 25.7283C42.0864 29.6118 39.656 27.0228 39.17 24.7574C38.3599 23.4629 38.7811 20.2914 46.947 17.9613Z" fill="white" stroke="#0066FF"/>
</svg>
