<svg width="102" height="100" viewBox="0 0 102 100" fill="none" xmlns="http://www.w3.org/2000/svg">
<path d="M96.715 48.8921C96.715 75.6761 75.1516 97.3842 48.5575 97.3842C21.9634 97.3842 0.4 75.6761 0.4 48.8921C0.4 22.1081 21.9634 0.4 48.5575 0.4C75.1516 0.4 96.715 22.1081 96.715 48.8921Z" stroke="#0066FF" stroke-width="0.8"/>
<path d="M50.15 15.2287L46.9659 12.8241H42.9858L40.5977 12.0226H39.8017L39.0057 12.8241L39.8017 14.4268C39.0057 14.4268 37.0952 14.2666 35.8216 13.6256C34.5479 12.9847 34.2295 12.8241 34.2295 12.8241L32.6375 14.4268C32.0007 15.0678 31.8415 14.6939 31.8415 14.4268L29.4534 16.0302V17.6329L27.8613 20.0374L31.8415 19.2359L32.6375 18.4344V17.6329L34.2295 16.0302H35.0256L33.4335 18.4344L35.8216 19.2359L36.6176 17.6329L38.2097 16.0302L39.0057 16.8314H40.5977L42.1898 17.6329L44.5778 19.2359L46.1699 16.8314L48.558 17.6329L50.946 20.0374L51.7421 23.2434L52.5381 24.045L54.1301 26.4495L56.5182 25.648L57.3142 24.045L55.7222 21.6404L54.1301 20.8389L55.7222 18.4344L56.5182 17.6329L57.3142 16.0302H60.4983L62.0904 17.6329H64.4785V16.0302H65.2745L66.0705 15.2287V13.6256H62.8864L59.7023 12.0226L62.0904 11.2208V8.81659C62.0904 8.81659 60.3391 8.65623 59.7023 8.01476L59.6985 8.01088C58.9012 7.20777 57.313 5.60797 56.5182 4.00753C55.7222 2.40452 54.9262 3.20603 53.3341 4.00753C52.0605 4.64874 52.2728 5.34338 52.5381 5.61055C52.2728 6.41206 51.5829 8.17538 50.946 8.81659C50.3092 9.4578 52.8034 10.1524 54.1301 10.4196L56.5182 12.0226L55.7222 13.6256L54.1301 15.2287L50.15 16.0302V15.2287Z" stroke="#0066FF" stroke-width="0.8"/>
<path d="M31.8414 75.3416L28.6573 77.7462H24.6772L22.2891 78.5477H21.4931L20.6971 77.7462L21.4931 76.1435C20.6971 76.1435 18.7866 76.3037 17.513 76.9447C16.2393 77.5856 15.9209 77.7462 15.9209 77.7462L14.3289 76.1435C13.6921 75.5025 13.5329 75.8764 13.5329 76.1435L11.1448 74.5401V72.9374L9.55273 70.5329L13.5329 71.3344L14.3289 72.1359V72.9374L15.9209 74.5401H16.717L15.1249 72.1359L17.513 71.3344L18.309 72.9374L19.9011 74.5401L20.6971 73.7389H22.2891L23.8812 72.9374L26.2693 71.3344L27.8613 73.7389L30.2494 72.9374L32.6375 70.5329L33.4335 67.3269L34.2295 66.5254L35.8216 64.1208L38.2096 64.9223L39.0057 66.5254L37.4136 68.9299L35.8216 69.7314L37.4136 72.1359L38.2096 72.9374L39.0057 74.5401H42.1898L43.7818 72.9374H46.1699V74.5401H46.9659L47.7619 75.3416V76.9447H44.5778L41.3937 78.5477L43.7818 79.3495V81.7537C43.7818 81.7537 42.0305 81.9141 41.3937 82.5556L41.3899 82.5594C40.5926 83.3625 39.0044 84.9623 38.2096 86.5628C37.4136 88.1658 36.6176 87.3643 35.0255 86.5628C33.7519 85.9216 33.9642 85.2269 34.2295 84.9598C33.9642 84.1582 33.2743 82.3949 32.6375 81.7537C32.0006 81.1125 34.4948 80.4179 35.8216 80.1507L38.2096 78.5477L37.4136 76.9447L35.8216 75.3416L31.8414 74.5401V75.3416Z" stroke="#0066FF" stroke-width="0.8"/>
<path d="M19.8996 51.2971L23.8797 49.6941H24.6758C24.9411 49.6941 25.7902 49.6941 27.0638 49.6941C28.6559 49.6941 29.4519 48.8925 30.2479 48.8925C30.8848 48.8925 32.1053 48.3582 32.636 48.091H33.432L35.0241 48.8925H40.5963C41.3923 49.1597 43.1435 49.5338 43.7804 48.8925C44.5764 48.091 46.9645 49.6941 47.7605 48.091C48.5565 46.488 60.4969 37.6714 39.0042 26.4503C38.2082 24.8473 36.4569 21.4809 35.8201 20.8397C35.0241 20.0382 31.044 20.0382 29.4519 22.4427C28.1783 24.3664 25.2064 26.9844 23.8797 28.053C23.3491 27.7858 21.8101 28.053 19.8996 31.259C17.9892 34.465 18.5729 30.4575 19.1036 28.053L19.8996 25.6484C18.3076 25.3812 15.1236 25.007 15.1236 25.6484C15.1236 26.4503 14.3275 28.8545 14.3275 31.259C14.3275 33.6635 15.1236 36.0681 14.3275 36.0681C13.6907 36.0681 12.4702 37.1367 11.9395 37.6711V32.862L12.7355 30.4575C11.6741 33.1292 9.7106 38.7932 10.3474 40.0756C11.1434 41.6786 11.9395 44.0832 11.9395 45.6862C12.7355 49.6941 12.7355 51.2971 11.1435 51.2971C9.55142 51.2971 8.75539 49.6941 8.75539 48.8925C8.75539 48.091 10.3474 44.8847 9.55142 45.6862C8.9146 46.3274 8.22471 49.1594 7.95937 50.4952C6.898 50.4955 5.09368 50.6561 6.36732 51.2971C7.64096 51.938 7.95937 53.7013 7.95937 54.5028V56.9073V60.1133V61.7164L7.16372 64.1209L6.36732 61.7164L4.77564 60.9149L3.18359 60.1133V58.5103V64.9224L4.77564 64.1209L7.16372 65.7239L7.95937 67.3269H10.3474L8.75539 64.9224V62.5179L9.55142 60.1133C10.0821 60.9149 11.1435 62.1973 11.1435 60.9149C11.1435 59.3118 11.1435 56.1058 11.1435 55.3043C11.1435 54.6631 12.7358 57.7088 13.5319 59.3118C14.0625 57.976 15.1236 54.9837 15.1236 53.7013C15.1236 52.0982 14.3279 52.0982 18.3081 53.7013C21.4922 54.9837 23.3492 54.7699 23.8797 54.5028V52.8998L19.8996 51.2971Z" stroke="#0066FF" stroke-width="0.8"/>
<path d="M77.9013 48.6944L74.4689 51.28L73.7 51.4874C73.4437 51.5566 72.6235 51.7779 71.3933 52.1098C69.8555 52.5247 69.2926 53.5063 68.5237 53.7137C67.9086 53.8797 66.867 54.7139 66.423 55.1103L65.6541 55.3177L63.9103 54.9584L58.528 56.4105C57.6904 56.3599 55.9027 56.455 55.4524 57.2403C54.8895 58.222 52.1708 57.2959 51.8139 59.0518C51.4571 60.8076 32.8731 64.4933 56.5178 69.731C80.1625 74.9687 69.5724 81.8094 70.3523 82.2628C71.3273 82.8296 75.1718 81.7924 76.0915 79.0549C76.8273 76.8649 79.0249 73.5616 80.0317 72.1837C80.613 72.3034 82.0308 71.6443 83.0521 68.0496C84.0733 64.455 84.5396 68.4781 84.6451 70.939L84.4943 73.469C86.1007 73.3123 89.2725 72.844 89.1076 72.2244C88.9015 71.4499 89.0524 68.9202 88.4343 66.5976C87.8162 64.275 86.4292 62.1598 87.1981 61.9524C87.8133 61.7864 88.7175 60.4361 89.0928 59.7816L90.3289 64.4268L90.1781 66.9569C90.5166 64.0996 90.9573 58.1169 90.0125 57.0441C88.8316 55.7032 87.4446 53.588 87.0325 52.0396C85.2334 48.3758 84.8213 46.8274 86.3591 46.4125C87.8969 45.9976 89.0779 47.3385 89.2839 48.1127C89.4899 48.8869 88.7763 52.399 89.3392 51.4173C89.7895 50.632 89.7279 47.7167 89.6408 46.3572C90.666 46.0804 92.3675 45.455 90.9725 45.1678C89.5775 44.8806 88.8167 43.2604 88.6107 42.4862L87.9926 40.1636L87.1685 37.0668L86.7565 35.5184L86.9069 32.9885L88.2943 35.1035L90.0377 35.463L91.7816 35.8223L92.1936 37.3707L90.5454 31.1771L89.2136 32.3662L86.4949 31.4401L85.3143 30.099L83.0076 30.7214L85.1635 32.6291L85.7815 34.9517L85.6307 37.4817C84.9121 36.8458 83.5573 35.8837 83.8869 37.1224C84.2989 38.6708 85.1231 41.7676 85.3291 42.5418C85.4939 43.1612 83.173 40.6342 81.9919 39.2933C81.8228 40.7218 81.567 43.8887 81.8967 45.1274C82.3087 46.6758 83.0772 46.4685 78.8207 45.9573C75.4154 45.5484 73.6766 46.2388 73.2328 46.6351L73.6449 48.1835L77.9013 48.6944Z" stroke="#0066FF" stroke-width="0.8"/>
<path d="M30.4045 42.6501C26.3858 37.7385 26.8164 33.4409 27.534 31.9061C28.0124 30.627 29.2563 27.762 30.4045 26.5341C31.8398 24.9992 33.9925 25.7667 35.4278 26.5341C36.863 27.3015 36.863 31.1387 36.1454 34.2084C35.4278 37.2781 33.9925 41.1152 33.9925 43.4175C33.9925 44.1849 29.6868 46.4872 28.9692 46.4872C28.3951 46.4872 29.6869 43.9291 30.4045 42.6501Z" stroke="#0066FF" stroke-width="0.8"/>
<path d="M15.1247 39.2739C15.0989 39.3778 15.0857 39.5008 15.0827 39.6389M15.0827 39.6389C15.0554 40.9217 15.9192 43.5041 15.9192 44.083C15.9192 44.7242 14.8578 45.9532 14.3271 46.4875L15.9192 48.892H17.5115C17.7768 48.3577 18.1483 46.9684 17.5115 45.686C16.8747 44.4036 17.2462 40.3426 17.5115 38.4724L16.7168 36.0679L15.0827 39.6389Z" stroke="#0066FF" stroke-width="0.8"/>
<path d="M63.6825 44.0827C64.9561 40.8767 63.1518 40.0752 62.0905 40.0752C61.5598 39.5408 60.1799 38.4722 58.9059 38.4722C57.3133 38.4722 58.1098 41.6782 55.7218 43.2812C53.8113 44.5636 52.8033 47.5559 52.5382 48.8918C48.2927 50.2276 41.3938 53.2199 47.762 54.5024C54.1302 55.7848 58.9064 47.5559 60.4984 43.2812C61.0291 44.8842 62.4089 47.2888 63.6825 44.0827Z" stroke="#0066FF" stroke-width="0.8"/>
<path d="M66.2799 90.6399C68.975 88.5046 67.8104 86.9021 66.8913 86.3677C66.697 85.6378 66.0327 84.0176 64.9293 83.3762C63.5502 82.5744 62.6479 85.752 59.7838 85.9379C57.4924 86.0867 55.1336 88.1707 54.2406 89.1941C49.9006 88.2136 42.44 87.3318 47.3182 91.6484C52.1964 95.9651 60.419 91.2432 63.9204 88.3427C63.584 89.9981 63.5849 92.7752 66.2799 90.6399Z" stroke="#0066FF" stroke-width="0.8"/>
<path d="M63.6822 24.0458C64.319 18.2749 70.8464 22.1756 74.0305 24.8473C74.561 24.5801 75.463 23.2441 74.8261 20.0376C74.0301 16.0294 74.0305 19.2364 70.846 19.2364C68.2984 19.2364 70.8459 14.4271 72.4381 12.0225L74.8261 15.2288C76.4182 14.6945 79.2839 14.7479 78.0102 19.2364C76.7366 23.7248 78.5409 26.4499 79.6023 27.2515C80.133 26.4501 81.1943 24.687 81.1943 24.0458C81.1943 23.2442 83.5824 23.2439 83.5824 24.0458C83.5824 24.8476 84.3784 24.8473 83.5824 28.8545C82.7864 32.8617 79.6023 30.4575 78.0102 29.656C76.4182 28.8545 74.8261 28.8545 70.846 29.656C66.8659 30.4575 72.4381 31.259 70.846 34.465C69.254 37.6711 66.0702 34.465 63.6822 32.862C61.2941 31.259 62.8861 31.2593 63.6822 24.0458Z" stroke="#0066FF" stroke-width="0.8"/>
</svg>
