<svg width="109" height="125" viewBox="0 0 109 125" fill="none" xmlns="http://www.w3.org/2000/svg">
<path d="M107 66.9089C83.6407 56.7194 65.287 42.415 54 2C33.7815 52.5555 10.2423 60.7854 1 58.581C22.7889 64.8514 45.412 104.14 54 123C64.4037 82.4381 93.6682 68.7051 107 66.9089Z" stroke="#0066FF"/>
<path d="M96.1285 66.0171C77.5609 57.8884 62.972 46.477 54.0003 14.2358C37.9291 54.5666 19.2185 61.1321 11.8721 59.3735C29.1914 64.3757 47.1739 95.718 54.0003 110.764C62.2699 78.4055 85.5314 67.45 96.1285 66.0171Z" stroke="#0066FF"/>
<path d="M73.9314 61.7463C63.5495 57.205 55.3923 50.8296 50.3759 32.8169C41.3899 55.3491 30.928 59.0171 26.8203 58.0346C36.5043 60.8293 46.559 78.3398 50.3759 86.7457C54.9997 68.6676 68.0062 62.5469 73.9314 61.7463Z" stroke="#0066FF"/>
<path d="M51.3215 49.8453C49.7651 50.5147 48.5422 51.4544 47.7901 54.1094C46.443 50.7882 44.8746 50.2476 44.2588 50.3924C45.7106 49.9804 47.2179 47.3995 47.7901 46.1605C48.4833 48.8251 50.4332 49.7273 51.3215 49.8453Z" stroke="#0066FF"/>
</svg>
