<svg width="89" height="126" viewBox="0 0 89 126" fill="none" xmlns="http://www.w3.org/2000/svg">
<path d="M32.4492 116.986L48.6187 58.0913" stroke="#0066FF" stroke-width="0.8"/>
<path d="M44.4268 122.394L50.4154 58.6924" stroke="#0066FF" stroke-width="0.8"/>
<path d="M76.7663 117.587L55.207 57.4907" stroke="#0066FF" stroke-width="0.8"/>
<path d="M55.4055 42.1657C55.4055 45.08 52.9216 47.4748 49.8168 47.4748C46.712 47.4748 44.2281 45.08 44.2281 42.1657C44.2281 39.2513 46.712 36.8565 49.8168 36.8565C52.9216 36.8565 55.4055 39.2513 55.4055 42.1657Z" stroke="#0066FF" stroke-width="0.8"/>
<path d="M52.4112 42.7665C52.4112 45.0362 50.578 46.8737 48.3196 46.8737C46.0613 46.8737 44.2281 45.0362 44.2281 42.7665C44.2281 40.4968 46.0613 38.6593 48.3196 38.6593C50.578 38.6593 52.4112 40.4968 52.4112 42.7665Z" stroke="#0066FF" stroke-width="0.8"/>
<path d="M49.4166 42.7671C49.4166 43.3772 48.9241 43.8695 48.3194 43.8695C47.7148 43.8695 47.2223 43.3772 47.2223 42.7671C47.2223 42.1569 47.7148 41.6646 48.3194 41.6646C48.9241 41.6646 49.4166 42.1569 49.4166 42.7671Z" stroke="#0066FF" stroke-width="0.8"/>
<path d="M46.5231 46.3726L46.2236 48.7764C48.1201 49.0769 52.2123 49.4976 53.4101 48.7764L53.1106 46.673" stroke="#0066FF" stroke-width="0.8"/>
<path d="M56.4044 55.0864C56.4044 57.0778 54.1254 58.6922 51.314 58.6922C48.5027 58.6922 46.2236 57.0778 46.2236 55.0864" stroke="#0066FF" stroke-width="0.8"/>
<path d="M43.5289 49.0769L43.2295 53.8846C46.3236 55.1867 53.9492 57.0096 59.6984 53.8846V49.0769M43.5289 49.0769C49.2781 50.7596 56.704 49.7781 59.6984 49.0769M43.5289 49.0769C46.5233 47.274 51.5538 45.9519 59.6984 49.0769" stroke="#0066FF" stroke-width="0.8"/>
<rect x="43.0299" y="122.193" width="3.99095" height="3.40673" rx="1.6" stroke="#0066FF" stroke-width="0.8"/>
<rect x="0.489471" y="0.282595" width="3.99208" height="3.40575" rx="1.6" transform="matrix(0.965699 -0.259662 0.257978 0.966151 74.314 118.366)" stroke="#0066FF" stroke-width="0.8"/>
<rect x="0.283089" y="0.490325" width="3.99208" height="3.40575" rx="1.6" transform="matrix(0.965699 0.259662 -0.257978 0.966151 30.8139 115.777)" stroke="#0066FF" stroke-width="0.8"/>
<path d="M45.0253 39.762L44.127 37.0577C44.8256 36.2564 47.0015 34.714 50.1156 34.9543L51.0139 36.7573" stroke="#0066FF" stroke-width="0.8"/>
<path d="M38.4386 39.4618L52.5034 34.0297C47.0299 29.116 44.6269 19.4297 44.4274 15.4233L31.5516 20.5315C28.677 27.9834 34.9451 36.2567 38.4386 39.4618Z" stroke="#0066FF" stroke-width="0.8"/>
<path d="M35.6424 22.935C35.6424 23.4798 35.0871 24.0374 34.2458 24.0374C33.4045 24.0374 32.8492 23.4798 32.8492 22.935C32.8492 22.3902 33.4045 21.8326 34.2458 21.8326C35.0871 21.8326 35.6424 22.3902 35.6424 22.935Z" stroke="#0066FF" stroke-width="0.8"/>
<path d="M40.4334 35.5551C40.4334 36.1 39.8781 36.6575 39.0368 36.6575C38.1955 36.6575 37.6402 36.1 37.6402 35.5551C37.6402 35.0103 38.1955 34.4527 39.0368 34.4527C39.8781 34.4527 40.4334 35.0103 40.4334 35.5551Z" stroke="#0066FF" stroke-width="0.8"/>
<path d="M30.6526 24.4375L16.8786 29.8462C15.9803 31.9495 15.621 37.3582 21.3702 42.1659L35.7433 36.4567" stroke="#0066FF" stroke-width="0.8"/>
<path d="M8.49517 34.954L16.2805 31.9492C16.2805 35.7954 18.4763 39.3611 19.5742 40.6632L11.7889 43.668C7.71664 40.7834 7.8963 36.6568 8.49517 34.954Z" stroke="#0066FF" stroke-width="0.8"/>
<path d="M7.2969 32.8511L1.30799 34.9544C0.609308 37.8591 0.649232 44.69 6.39838 48.7766L12.3873 46.3727M7.2969 32.8511C5.99942 35.2549 5.67995 40.8439 12.3873 46.3727M7.2969 32.8511C8.08785 33.0953 9.0698 33.6205 9.99181 34.4846M12.3873 46.3727C12.6571 45.2596 12.8203 44.2258 12.8943 43.2674" stroke="#0066FF" stroke-width="0.8"/>
<path d="M82.7548 25.3389L54.6078 36.1563C43.8281 25.8197 44.1276 15.6234 45.6247 11.8173L74.0712 1M82.7548 25.3389C78.6625 21.4327 71.1966 11.0962 74.0712 1M82.7548 25.3389C83.1541 25.0385 84.0723 24.0769 84.5514 22.6346M74.0712 1C74.2708 1 75.2689 1.48077 76.4667 2.20192" stroke="#0066FF" stroke-width="0.8"/>
<path d="M82.2695 4.91174C83.6973 6.20465 85.084 8.08299 85.96 10.1225C86.5621 12.3861 86.9518 14.8987 86.926 16.9063C86.913 17.9169 86.7948 18.7715 86.5637 19.3957C86.3372 20.0075 86.0303 20.3306 85.6711 20.438C84.6931 20.5459 83.5786 19.9125 82.4451 18.5218C81.3158 17.1362 80.2466 15.0895 79.3771 12.6282C78.4863 10.1068 78.0876 7.88376 78.0399 6.19793C78.0161 5.35411 78.0806 4.65676 78.2085 4.12905C78.3243 3.65161 78.4812 3.35704 78.6311 3.20187C79.0433 3.11964 79.568 3.20395 80.1829 3.479C80.8369 3.77157 81.5526 4.26257 82.2695 4.91174Z" stroke="#0066FF" stroke-width="0.8"/>
<path d="M77.9638 1.60107C77.1653 5.90796 77.6045 16.0242 85.7491 22.0338M77.9638 1.60107C78.3631 1.80139 79.3323 2.78915 80.051 3.51031M77.9638 1.60107L74.6702 2.803C73.8717 6.00813 74.3707 14.6419 82.7549 23.5362L85.7491 22.0338M85.7491 22.0338C86.1484 21.4328 86.5551 19.6754 86.5551 19.0744" stroke="#0066FF" stroke-width="0.8"/>
</svg>
